<svg version="1.1" xmlns="http://www.w3.org/2000/svg" xmlns:xlink="http://www.w3.org/1999/xlink" width="341.14118" height="341.1412" viewBox="0,0,341.14118,341.1412">
	<g transform="translate(-69.42941,-9.4294)">
		<g data-paper-data="{&quot;isPaintingLayer&quot;:true}" fill-rule="nonzero" stroke="#000000" stroke-width="0" stroke-linejoin="miter" stroke-miterlimit="10" stroke-dasharray="" stroke-dashoffset="0" style="mix-blend-mode: normal">
			<path d="M117.69775,298.89695c0,0 16.4147,-80.35472 16.98564,-120.79588c0.56408,-39.95264 -13.58034,-120.40331 -13.58034,-120.40331c0,0 80.37444,14.30735 120.60636,14.87532c40.16769,0.56709 120.59286,-11.47002 120.59286,-11.47002c0,0 -15.8819,79.9372 -16.44723,119.97939c-0.56974,40.3551 13.0419,121.21982 13.0419,121.21982c0,0 -79.95814,-14.82837 -120.21354,-15.3967c-40.14401,-0.56675 -120.98568,11.9914 -120.98568,11.9914z" fill="#b0d4ff" stroke-linecap="butt" />
			<path d="M69.42941,180.0363c0,0 67.77143,-46.18832 96.3644,-74.79348c28.2476,-28.25961 74.1699,-95.81342 74.1699,-95.81342c0,0 47.67107,66.27382 76.12823,94.71888c28.41171,28.39964 94.47865,75.81543 94.47865,75.81543c0,0 -67.09833,46.26018 -95.40922,74.58315c-28.53214,28.54428 -75.12506,96.02375 -75.12506,96.02375c0,0 -47.0094,-66.35737 -75.48315,-94.81903c-28.39498,-28.38289 -95.12373,-75.71527 -95.12373,-75.71527z" fill="#66aaff" stroke-linecap="butt" />
			<path d="M329.61082,56.58353c-11.21456,2.418 -22.04113,5.70187 -33.86131,5.68494c0,0 -0.86102,0 -1.90593,0.33855c-3.42861,-2.02329 -6.89027,-3.89237 -10.36886,-5.59116c-5.95375,-9.23377 -12.06192,-18.30144 -18.25004,-27.33426c23.75725,3.94065 45.66565,13.35432 64.38615,26.90192z" fill="#b1b1b1" stroke-linecap="butt" />
			<path d="M187.87916,61.93988c-12.75966,-3.30103 -25.63496,-3.62876 -38.85063,-4.36024c19.67947,-14.57359 42.97787,-24.53841 68.30009,-28.29935c-6.74915,9.18686 -13.58956,18.16735 -19.94618,27.60126c-3.18573,1.54711 -6.35762,3.23736 -9.50327,5.05836z" fill="#b1b1b1" stroke-linecap="butt" />
			<path d="M361.23187,273.99907c-2.18162,-11.39595 -4.25931,-22.85165 -5.80956,-34.28937c4.51537,-7.03573 8.40231,-14.24921 11.51667,-21.4963c8.09566,-5.64754 16.35647,-11.05156 24.62691,-16.44836c-3.72492,26.95592 -14.47155,51.66919 -30.334,72.23403z" fill="#b1b1b1" stroke-linecap="butt" />
			<path d="M357.45502,125.43393c1.85693,-11.5904 4.13637,-22.85403 6.74895,-34.19534c13.51605,18.74752 22.89204,40.67822 26.78858,64.45266c-9.27837,-7.01003 -19.1936,-13.08532 -28.14518,-20.6674c-1.65869,-3.21919 -3.46046,-6.42013 -5.39235,-9.58993z" fill="#b1b1b1" stroke-linecap="butt" />
			<path d="M296.48677,297.69308c11.62562,0.41175 20.4343,4.70559 31.76959,7.32675c0.22116,0.05112 0.44076,0.10107 0.65882,0.14992c-18.39872,13.15887 -39.83515,22.34215 -63.05398,26.29451c6.66027,-8.9189 13.62113,-17.66449 19.55289,-26.98583c0,0 0.18204,-0.28607 0.38569,-0.76194c3.59026,-1.83532 7.15854,-3.84907 10.68699,-6.02341z" fill="#b1b1b1" stroke-linecap="butt" />
			<path d="M146.35228,301.64562c13.30213,-0.79981 26.42126,-2.53152 39.82377,-2.69131c4.40079,2.62136 8.85764,4.98959 13.33628,7.07051c5.87844,8.43127 11.37706,16.9398 16.59487,25.76126c-26.0047,-4.07758 -49.8367,-14.70478 -69.75493,-30.14048z" fill="#b1b1b1" stroke-linecap="butt" />
			<path d="M124.40896,238.5302c-0.01419,0.04449 -0.02094,0.06854 -0.02094,0.06854c-3.01852,10.78331 -5.59114,21.53552 -7.91255,32.35042c-15.00531,-20.48629 -25.03733,-44.84417 -28.31815,-71.29571c8.23455,5.96894 16.55279,11.90075 25.03619,17.50259c3.01705,7.19795 6.80257,14.3697 11.21545,21.37415z" fill="#b1b1b1" stroke-linecap="butt" />
			<path d="M117.96743,88.30106c1.10628,11.04151 1.94276,22.01997 3.78447,33.07048l-0.07576,2.21649c0,0 0,1.50547 0.78272,2.95091c-0.56693,0.94719 -1.12219,1.89702 -1.66537,2.84913c-10.60232,9.12052 -21.2421,18.15183 -31.9259,27.1724c4.00705,-25.36454 14.24615,-48.65684 29.09987,-68.25941z" fill="#b1b1b1" stroke-linecap="butt" />
			<g fill="#c7c7c7" stroke-linecap="butt">
				<path d="M237.09823,118.34912h98.81938v182.97523h-0.54635c-4.11779,-23.13817 -24.33596,-27.94144 -48.65726,-27.94144c-18.80225,0 -35.15226,2.8707 -43.50697,14.86401c-0.80794,-0.04406 -1.62167,-0.06636 -2.44061,-0.06636c-1.23524,0 -2.45863,0.05075 -3.66819,0.15032z" />
				<path d="M236.89966,118.62156c0,-27.3979 22.21036,-36.84383 49.60826,-36.84383c27.3979,0 49.60826,9.44596 49.60826,36.84383c0,27.3979 -22.21036,49.60826 -49.60826,49.60826c-27.3979,0 -49.60824,-22.21036 -49.60824,-49.60824z" />
				<path d="M144.08195,301.07885v-182.56602h98.59835v169.7085c-0.63458,-0.02709 -1.27264,-0.04077 -1.91391,-0.04077c-1.20158,0 -2.39191,0.04803 -3.56924,0.14228c-8.27298,-12.21218 -24.69844,-15.12297 -43.61042,-15.12297c-24.2669,0 -44.43983,4.79254 -48.54842,27.87895z" />
				<path d="M143.88385,118.78467c0,-27.33662 22.16071,-36.76145 49.4973,-36.76145c27.33662,0 49.49728,9.42484 49.49728,36.76145c0,27.33662 -22.16068,49.4973 -49.49728,49.4973c-27.33662,0 -49.4973,-22.16068 -49.4973,-49.4973z" />
			</g>
			<g fill="#ececec" stroke-linecap="butt">
				<path d="M148.35522,282.89695v-163.34729h88.21893v163.34729h-0.48774c-3.67607,-20.65612 -21.72541,-24.94412 -43.43774,-24.94412c-21.71233,0 -39.76167,4.28802 -43.43774,24.94412z" />
				<path d="M148.17797,119.79287c0,-24.45888 19.82785,-32.89156 44.28673,-32.89156c24.45888,0 44.28673,8.43268 44.28673,32.89156c0,24.45888 -19.82783,44.28673 -44.28671,44.28673c-24.45888,0 -44.28673,-19.82785 -44.28673,-44.28673z" />
				<path d="M243.31491,282.89695v-163.34729h88.21891v163.34729h-0.48774c-3.67607,-20.65612 -21.72541,-24.94415 -43.43774,-24.94415c-21.71233,0 -39.76169,4.28802 -43.43774,24.94415z" />
				<path d="M243.13763,119.79287c0,-24.45888 19.82783,-32.89158 44.28673,-32.89158c24.45888,0 44.28671,8.4327 44.28671,32.89158c0,24.45888 -19.82783,44.28673 -44.28671,44.28673c-24.45888,0 -44.28671,-19.82783 -44.28671,-44.28671z" />
			</g>
			<path d="M158.72938,126.37024c5.47923,-0.99623 6.47546,4.48301 6.47546,4.48301l1.01716,5.75096c1.03106,2.94339 4.5128,8.93854 7.56788,2.756c0.61048,-1.23543 0.43929,-7.71042 0.40228,-8.37781c-0.35695,-6.43639 -1.14664,-12.6917 -1.1514,-19.16162c0,0 0,-5.56906 5.56906,-5.56906c5.56906,0 5.56906,5.56906 5.56906,5.56906c-0.0074,9.31701 4.51108,24.67697 -0.74914,33.11892c-5.71119,9.1657 -17.65392,10.7003 -24.6909,2.31459c-1.76275,-2.10061 -2.14709,-5.04672 -3.22063,-7.57007l-1.27183,-6.83851c0,0 -0.99623,-5.47923 4.48301,-6.47546z" fill="#a2a2a2" stroke-linecap="butt" />
			<path d="M197.88519,109.51368c-0.55414,5.54143 -6.09557,4.98727 -6.09557,4.98727l-4.92984,-0.54971c-7.92768,1.50598 -13.51844,4.02842 -21.06015,7.04602c0,0 -5.17075,2.06829 -7.23905,-3.10245c-2.06829,-5.17074 3.10245,-7.23905 3.10245,-7.23905c8.87917,-3.55056 15.21647,-6.06772 24.71975,-7.83244l6.51512,0.59478c0,0 5.54143,0.55414 4.98729,6.09557z" fill="#a2a2a2" stroke-linecap="butt" />
			<path d="M196.92176,136.00864c4.56137,0 5.38673,3.73602 5.53607,5.08804c0.41149,0.34501 0.85869,0.6219 1.37694,0.76318c3.47055,0.94618 12.01392,-2.68305 11.05061,-7.41036c-0.31842,-1.56262 -1.61054,-3.22343 -3.28153,-4.8091l-6.16278,-2.24101c-2.2022,-0.74288 -3.7879,-2.82533 -3.7879,-5.27815c0,-2.31527 0.26835,-4.30055 2.27893,-5.1407l5.94426,-2.13323c3.52002,-2.11817 7.07332,-4.18246 10.66426,-6.17803c0,0 4.86824,-2.70458 7.57281,2.16366c2.70457,4.86824 -2.16366,7.57281 -2.16366,7.57281c-2.04241,1.13432 -4.0722,2.29149 -6.09192,3.46604c3.06781,2.9014 5.57687,7.67783 6.02467,10.81114c1.79331,12.54818 -12.64774,22.68011 -24.4288,20.05757c-2.9738,-0.66199 -5.15041,-3.25581 -7.72562,-4.88371l-2.37542,-6.2791c0,0 0,-5.56906 5.56906,-5.56906z" fill="#a2a2a2" stroke-linecap="butt" />
			<path d="M260.58962,246.05593c-5.47923,-0.99623 -4.48301,-6.47545 -4.48301,-6.47545l1.07717,-5.79864c-0.03259,-11.65436 0.54974,-23.30198 0.54974,-34.97928c0,0 0,-5.56906 5.56906,-5.56906c5.56906,0 5.56906,5.56906 5.56906,5.56906c0,12.01582 -0.5639,23.98445 -0.59475,35.97954l-1.21182,6.79083c0,0 -0.99623,5.47923 -6.47546,4.48301z" fill="#a2a2a2" stroke-linecap="butt" />
			<path d="M272.03975,207.38628c0,-3.0757 2.49336,-5.56906 5.56906,-5.56906c3.0757,0 5.56906,2.49336 5.56906,5.56906c0,3.0757 -2.49336,5.56906 -5.56906,5.56906c-3.0757,0 -5.56906,-2.49336 -5.56906,-5.56906z" fill="#a2a2a2" stroke-linecap="butt" />
			<path d="M275.94437,243.74862c-5.46091,-1.09218 -4.36873,-6.55309 -4.36873,-6.55309l1.06345,-5.17907c-0.01893,-4.01353 -0.0271,-8.02713 -0.0271,-12.04071c0,0 0,-5.56906 5.56906,-5.56906c5.56906,0 5.56906,5.56906 5.56906,5.56906c0,4.37942 -0.00976,8.75884 -0.0271,13.13823l-1.22555,6.26591c0,0 -1.09218,5.46091 -6.55309,4.36873z" fill="#a2a2a2" stroke-linecap="butt" />
			<path d="M296.56082,231.48854c2.06988,-2.06988 4.13975,-1.96379 5.63775,-1.39736c1.40032,-0.26631 2.79055,-0.55994 4.05968,-1.18128c6.7356,-3.29759 4.62814,-14.92108 -1.82158,-6.71298c0,0 -3.93793,3.93792 -7.87585,0c-3.93792,-3.93792 0,-7.87584 0,-7.87584c1.93749,-1.73766 3.37332,-4.30532 5.81248,-5.21297c15.60697,-5.80758 24.31499,11.15313 15.87781,23.17646c-5.22596,7.44721 -7.2701,6.50785 -15.65017,9.06892l-6.04012,-1.98911c0,0 -3.93792,-3.93793 0,-7.87585z" fill="#a2a2a2" stroke-linecap="butt" />
			<path d="M295.34852,244.42902c-5.56906,0 -5.56906,-5.56906 -5.56906,-5.56906l0.02287,-1.6487c1.25408,-13.65206 0.54938,-27.56289 0.54938,-41.26995c0,0 0,-5.56906 5.56906,-5.56906c5.56906,0 5.56906,5.56906 5.56906,5.56906c0,14.05262 0.6652,28.27973 -0.59512,42.27835l0.02288,0.6403c0,0 0,5.56906 -5.56906,5.56906z" fill="#a2a2a2" stroke-linecap="butt" />
			<path d="M91.15158,299.3034l117.88321,-121.3167l-3.43349,31.47367l42.3464,-77.82581l-2.289,34.90717l121.88894,-143.06215l-55.50811,103.00474l-94.40326,96.0038l-22.40198,15.96035l-1.65021,-9.53165l-1.71675,-14.87847z" fill="#ffadad" stroke-linecap="round" />
		</g>
	</g>
</svg>